<mxfile host="app.diagrams.net" modified="2024-03-20T17:20:39.225Z" agent="Mozilla/5.0 (Windows NT 10.0; Win64; x64; rv:125.0) Gecko/20100101 Firefox/125.0" etag="JuBVAk0R83efE3aShRX1" version="23.1.5" type="google">
  <diagram name="Page-1" id="10n8vO1mjyBnHjSuq7sf">
    <mxGraphModel grid="1" page="1" gridSize="10" guides="1" tooltips="1" connect="1" arrows="1" fold="1" pageScale="1" pageWidth="1200" pageHeight="1600" math="0" shadow="0">
      <root>
        <mxCell id="0" />
        <mxCell id="1" parent="0" />
        <mxCell id="vON72WoPoKhvi6_T81E7-11" value="" style="endArrow=none;html=1;rounded=0;exitX=1;exitY=0.5;exitDx=0;exitDy=0;entryX=0;entryY=0.5;entryDx=0;entryDy=0;" edge="1" parent="1" source="XLGEyYycjFzgeNaiZV0z-1" target="vON72WoPoKhvi6_T81E7-12">
          <mxGeometry width="50" height="50" relative="1" as="geometry">
            <mxPoint x="450" y="440" as="sourcePoint" />
            <mxPoint x="500" y="390" as="targetPoint" />
          </mxGeometry>
        </mxCell>
        <mxCell id="vON72WoPoKhvi6_T81E7-12" value="Has" style="rhombus;whiteSpace=wrap;html=1;" vertex="1" parent="1">
          <mxGeometry x="510" y="520" width="80" height="80" as="geometry" />
        </mxCell>
        <mxCell id="vON72WoPoKhvi6_T81E7-13" value="Red" style="rounded=0;whiteSpace=wrap;html=1;" vertex="1" parent="1">
          <mxGeometry x="650" y="530" width="120" height="60" as="geometry" />
        </mxCell>
        <mxCell id="vON72WoPoKhvi6_T81E7-20" value="" style="endArrow=none;html=1;rounded=0;entryX=0;entryY=0.5;entryDx=0;entryDy=0;exitX=1;exitY=0.5;exitDx=0;exitDy=0;" edge="1" parent="1" source="vON72WoPoKhvi6_T81E7-12" target="vON72WoPoKhvi6_T81E7-13">
          <mxGeometry width="50" height="50" relative="1" as="geometry">
            <mxPoint x="445.64102564102564" y="464.35897435897436" as="sourcePoint" />
            <mxPoint x="500" y="510" as="targetPoint" />
          </mxGeometry>
        </mxCell>
        <mxCell id="vON72WoPoKhvi6_T81E7-21" value="" style="endArrow=none;html=1;rounded=0;entryX=1;entryY=1;entryDx=0;entryDy=0;exitX=0.25;exitY=0;exitDx=0;exitDy=0;" edge="1" parent="1" source="XLGEyYycjFzgeNaiZV0z-1" target="XLGEyYycjFzgeNaiZV0z-2">
          <mxGeometry width="50" height="50" relative="1" as="geometry">
            <mxPoint x="450" y="560" as="sourcePoint" />
            <mxPoint x="500" y="510" as="targetPoint" />
          </mxGeometry>
        </mxCell>
        <mxCell id="XLGEyYycjFzgeNaiZV0z-1" value="Journal Entry" style="rounded=0;whiteSpace=wrap;html=1;" vertex="1" parent="1">
          <mxGeometry x="320" y="530" width="120" height="60" as="geometry" />
        </mxCell>
        <mxCell id="XLGEyYycjFzgeNaiZV0z-2" value="Date" style="ellipse;whiteSpace=wrap;html=1;" vertex="1" parent="1">
          <mxGeometry x="240" y="470" width="80" height="40" as="geometry" />
        </mxCell>
        <mxCell id="XLGEyYycjFzgeNaiZV0z-14" value="" style="endArrow=none;html=1;rounded=0;exitX=1;exitY=0;exitDx=0;exitDy=0;entryX=0;entryY=1;entryDx=0;entryDy=0;" edge="1" parent="1" source="XLGEyYycjFzgeNaiZV0z-1" target="XLGEyYycjFzgeNaiZV0z-15">
          <mxGeometry width="50" height="50" relative="1" as="geometry">
            <mxPoint x="180" y="300" as="sourcePoint" />
            <mxPoint x="500" y="290" as="targetPoint" />
          </mxGeometry>
        </mxCell>
        <mxCell id="XLGEyYycjFzgeNaiZV0z-15" value="Has" style="rhombus;whiteSpace=wrap;html=1;" vertex="1" parent="1">
          <mxGeometry x="450" y="450" width="80" height="80" as="geometry" />
        </mxCell>
        <mxCell id="XLGEyYycjFzgeNaiZV0z-16" value="Yellow" style="rounded=0;whiteSpace=wrap;html=1;" vertex="1" parent="1">
          <mxGeometry x="520" y="380" width="120" height="60" as="geometry" />
        </mxCell>
        <mxCell id="XLGEyYycjFzgeNaiZV0z-17" value="" style="endArrow=none;html=1;rounded=0;entryX=0.25;entryY=1;entryDx=0;entryDy=0;exitX=1;exitY=0;exitDx=0;exitDy=0;" edge="1" parent="1" source="XLGEyYycjFzgeNaiZV0z-15" target="XLGEyYycjFzgeNaiZV0z-16">
          <mxGeometry width="50" height="50" relative="1" as="geometry">
            <mxPoint x="445.64102564102564" y="364.35897435897436" as="sourcePoint" />
            <mxPoint x="500" y="410" as="targetPoint" />
          </mxGeometry>
        </mxCell>
        <mxCell id="XLGEyYycjFzgeNaiZV0z-18" value="" style="endArrow=none;html=1;rounded=0;exitX=0.5;exitY=0;exitDx=0;exitDy=0;entryX=0.5;entryY=1;entryDx=0;entryDy=0;" edge="1" parent="1" source="XLGEyYycjFzgeNaiZV0z-1" target="XLGEyYycjFzgeNaiZV0z-19">
          <mxGeometry width="50" height="50" relative="1" as="geometry">
            <mxPoint x="180" y="490" as="sourcePoint" />
            <mxPoint x="500" y="480" as="targetPoint" />
          </mxGeometry>
        </mxCell>
        <mxCell id="XLGEyYycjFzgeNaiZV0z-19" value="Has" style="rhombus;whiteSpace=wrap;html=1;" vertex="1" parent="1">
          <mxGeometry x="340" y="380" width="80" height="80" as="geometry" />
        </mxCell>
        <mxCell id="XLGEyYycjFzgeNaiZV0z-20" value="Green" style="rounded=0;whiteSpace=wrap;html=1;" vertex="1" parent="1">
          <mxGeometry x="320" y="280" width="120" height="60" as="geometry" />
        </mxCell>
        <mxCell id="XLGEyYycjFzgeNaiZV0z-21" value="" style="endArrow=none;html=1;rounded=0;entryX=0.5;entryY=1;entryDx=0;entryDy=0;exitX=0.5;exitY=0;exitDx=0;exitDy=0;" edge="1" parent="1" source="XLGEyYycjFzgeNaiZV0z-19" target="XLGEyYycjFzgeNaiZV0z-20">
          <mxGeometry width="50" height="50" relative="1" as="geometry">
            <mxPoint x="445.64102564102564" y="554.3589743589744" as="sourcePoint" />
            <mxPoint x="500" y="600" as="targetPoint" />
          </mxGeometry>
        </mxCell>
        <mxCell id="XLGEyYycjFzgeNaiZV0z-23" value="Text" style="ellipse;whiteSpace=wrap;html=1;" vertex="1" parent="1">
          <mxGeometry x="180" y="540" width="80" height="40" as="geometry" />
        </mxCell>
        <mxCell id="XLGEyYycjFzgeNaiZV0z-26" value="" style="endArrow=none;html=1;rounded=0;entryX=1;entryY=0.5;entryDx=0;entryDy=0;exitX=0;exitY=0.5;exitDx=0;exitDy=0;" edge="1" parent="1" source="XLGEyYycjFzgeNaiZV0z-1" target="XLGEyYycjFzgeNaiZV0z-23">
          <mxGeometry width="50" height="50" relative="1" as="geometry">
            <mxPoint x="301" y="563" as="sourcePoint" />
            <mxPoint x="259" y="537" as="targetPoint" />
          </mxGeometry>
        </mxCell>
        <mxCell id="XLGEyYycjFzgeNaiZV0z-28" value="d" style="ellipse;whiteSpace=wrap;html=1;aspect=fixed;" vertex="1" parent="1">
          <mxGeometry x="695" y="350" width="30" height="30" as="geometry" />
        </mxCell>
        <mxCell id="XLGEyYycjFzgeNaiZV0z-29" value="" style="endArrow=none;html=1;rounded=0;exitX=1;exitY=0.25;exitDx=0;exitDy=0;entryX=0;entryY=1;entryDx=0;entryDy=0;" edge="1" parent="1" source="XLGEyYycjFzgeNaiZV0z-16" target="XLGEyYycjFzgeNaiZV0z-28">
          <mxGeometry width="50" height="50" relative="1" as="geometry">
            <mxPoint x="670" y="410" as="sourcePoint" />
            <mxPoint x="748" y="347" as="targetPoint" />
          </mxGeometry>
        </mxCell>
        <mxCell id="XLGEyYycjFzgeNaiZV0z-30" value="" style="endArrow=none;html=1;rounded=0;exitX=0.5;exitY=0;exitDx=0;exitDy=0;entryX=0.5;entryY=1;entryDx=0;entryDy=0;" edge="1" parent="1" source="vON72WoPoKhvi6_T81E7-13" target="XLGEyYycjFzgeNaiZV0z-28">
          <mxGeometry width="50" height="50" relative="1" as="geometry">
            <mxPoint x="640" y="410" as="sourcePoint" />
            <mxPoint x="709" y="366" as="targetPoint" />
          </mxGeometry>
        </mxCell>
        <mxCell id="XLGEyYycjFzgeNaiZV0z-31" value="" style="endArrow=none;html=1;rounded=0;exitX=0;exitY=0.5;exitDx=0;exitDy=0;entryX=1;entryY=0.5;entryDx=0;entryDy=0;" edge="1" parent="1" source="XLGEyYycjFzgeNaiZV0z-28" target="XLGEyYycjFzgeNaiZV0z-20">
          <mxGeometry width="50" height="50" relative="1" as="geometry">
            <mxPoint x="540" y="470" as="sourcePoint" />
            <mxPoint x="540" y="300" as="targetPoint" />
          </mxGeometry>
        </mxCell>
        <mxCell id="XLGEyYycjFzgeNaiZV0z-38" value="" style="endArrow=none;html=1;rounded=0;exitX=1;exitY=0;exitDx=0;exitDy=0;entryX=0;entryY=0.75;entryDx=0;entryDy=0;" edge="1" parent="1" source="XLGEyYycjFzgeNaiZV0z-28" target="XLGEyYycjFzgeNaiZV0z-39">
          <mxGeometry width="50" height="50" relative="1" as="geometry">
            <mxPoint x="705" y="375" as="sourcePoint" />
            <mxPoint x="760" y="330" as="targetPoint" />
          </mxGeometry>
        </mxCell>
        <mxCell id="XLGEyYycjFzgeNaiZV0z-39" value="Activities" style="rounded=0;whiteSpace=wrap;html=1;" vertex="1" parent="1">
          <mxGeometry x="780" y="270" width="120" height="60" as="geometry" />
        </mxCell>
        <mxCell id="XLGEyYycjFzgeNaiZV0z-40" value="Title" style="ellipse;whiteSpace=wrap;html=1;" vertex="1" parent="1">
          <mxGeometry x="800" y="370" width="80" height="40" as="geometry" />
        </mxCell>
        <mxCell id="XLGEyYycjFzgeNaiZV0z-41" value="" style="endArrow=none;html=1;rounded=0;exitX=0.5;exitY=0;exitDx=0;exitDy=0;entryX=0.5;entryY=1;entryDx=0;entryDy=0;" edge="1" parent="1" source="XLGEyYycjFzgeNaiZV0z-40" target="XLGEyYycjFzgeNaiZV0z-39">
          <mxGeometry width="50" height="50" relative="1" as="geometry">
            <mxPoint x="731" y="364" as="sourcePoint" />
            <mxPoint x="790" y="325" as="targetPoint" />
          </mxGeometry>
        </mxCell>
        <mxCell id="XLGEyYycjFzgeNaiZV0z-42" value="n" style="text;strokeColor=none;fillColor=none;spacingLeft=4;spacingRight=4;overflow=hidden;rotatable=0;points=[[0,0.5],[1,0.5]];portConstraint=eastwest;fontSize=12;whiteSpace=wrap;html=1;" vertex="1" parent="1">
          <mxGeometry x="380" y="500" width="40" height="30" as="geometry" />
        </mxCell>
        <mxCell id="XLGEyYycjFzgeNaiZV0z-43" value="m" style="text;strokeColor=none;fillColor=none;spacingLeft=4;spacingRight=4;overflow=hidden;rotatable=0;points=[[0,0.5],[1,0.5]];portConstraint=eastwest;fontSize=12;whiteSpace=wrap;html=1;" vertex="1" parent="1">
          <mxGeometry x="380" y="340" width="40" height="30" as="geometry" />
        </mxCell>
        <mxCell id="XLGEyYycjFzgeNaiZV0z-44" value="m" style="text;strokeColor=none;fillColor=none;spacingLeft=4;spacingRight=4;overflow=hidden;rotatable=0;points=[[0,0.5],[1,0.5]];portConstraint=eastwest;fontSize=12;whiteSpace=wrap;html=1;" vertex="1" parent="1">
          <mxGeometry x="540" y="440" width="40" height="30" as="geometry" />
        </mxCell>
        <mxCell id="XLGEyYycjFzgeNaiZV0z-45" value="n" style="text;strokeColor=none;fillColor=none;spacingLeft=4;spacingRight=4;overflow=hidden;rotatable=0;points=[[0,0.5],[1,0.5]];portConstraint=eastwest;fontSize=12;whiteSpace=wrap;html=1;" vertex="1" parent="1">
          <mxGeometry x="440" y="520" width="40" height="30" as="geometry" />
        </mxCell>
        <mxCell id="XLGEyYycjFzgeNaiZV0z-46" value="n" style="text;strokeColor=none;fillColor=none;spacingLeft=4;spacingRight=4;overflow=hidden;rotatable=0;points=[[0,0.5],[1,0.5]];portConstraint=eastwest;fontSize=12;whiteSpace=wrap;html=1;" vertex="1" parent="1">
          <mxGeometry x="440" y="560" width="40" height="30" as="geometry" />
        </mxCell>
        <mxCell id="XLGEyYycjFzgeNaiZV0z-47" value="m" style="text;strokeColor=none;fillColor=none;spacingLeft=4;spacingRight=4;overflow=hidden;rotatable=0;points=[[0,0.5],[1,0.5]];portConstraint=eastwest;fontSize=12;whiteSpace=wrap;html=1;" vertex="1" parent="1">
          <mxGeometry x="630" y="540" width="40" height="30" as="geometry" />
        </mxCell>
      </root>
    </mxGraphModel>
  </diagram>
</mxfile>
